<svg
  fill="#000000"
  viewBox="0 0 32 32"
  enable-background="new 0 0 32 32"
  id="Glyph"
  version="1.1"
  xml:space="preserve"
  xmlns="http://www.w3.org/2000/svg"
  xmlns:xlink="http://www.w3.org/1999/xlink"
>
  <g id="SVGRepo_bgCarrier" stroke-width="0"></g>
  <g id="SVGRepo_tracerCarrier" stroke-linecap="round" stroke-linejoin="round"></g>
  <g id="SVGRepo_iconCarrier">
    <path d="M13,16c0,1.654,1.346,3,3,3s3-1.346,3-3s-1.346-3-3-3S13,14.346,13,16z" id="XMLID_294_"></path>
    <path d="M13,26c0,1.654,1.346,3,3,3s3-1.346,3-3s-1.346-3-3-3S13,24.346,13,26z" id="XMLID_295_"></path>
    <path d="M13,6c0,1.654,1.346,3,3,3s3-1.346,3-3s-1.346-3-3-3S13,4.346,13,6z" id="XMLID_297_"></path>
  </g>
</svg>